STARTFONT 2.1
FONT -FontForge-ITC Benguiat Gothic Std-Bold-R-Normal--24-240-75-75-P-126-ISO8859-1
SIZE 24 75 75
FONTBOUNDINGBOX 28 28 -4 -6
COMMENT "Generated by fontforge, http://fontforge.sourceforge.net"
COMMENT "Copyright 1990, 1995 , 2002Adobe Systems Incorporated. All Rights Reserved. ITC Benguiat Gothic is a registered trademark of International Typeface Corporation."
STARTPROPERTIES 40
FOUNDRY "FontForge"
FAMILY_NAME "ITC Benguiat Gothic Std"
WEIGHT_NAME "Bold"
SLANT "R"
SETWIDTH_NAME "Normal"
ADD_STYLE_NAME ""
PIXEL_SIZE 24
POINT_SIZE 240
RESOLUTION_X 75
RESOLUTION_Y 75
SPACING "P"
AVERAGE_WIDTH 126
CHARSET_REGISTRY "ISO8859"
CHARSET_ENCODING "1"
FONTNAME_REGISTRY ""
CHARSET_COLLECTIONS "ISOLatin1Encoding"
FONT_NAME "BenguiatGothicStd-Bold"
FACE_NAME "ITC Benguiat Gothic Std Bold"
COPYRIGHT "Copyright 1990, 1995 , 2002Adobe Systems Incorporated. All Rights Reserved. ITC Benguiat Gothic is a registered trademark of International Typeface Corporation."
FONT_VERSION "001.001"
FONT_ASCENT 17
FONT_DESCENT 7
UNDERLINE_POSITION -2
UNDERLINE_THICKNESS 2
X_HEIGHT 12
CAP_HEIGHT 16
RAW_ASCENT 691
RAW_DESCENT 309
NORM_SPACE 7
RELATIVE_WEIGHT 70
RELATIVE_SETWIDTH 50
SUPERSCRIPT_X 0
SUPERSCRIPT_Y 8
SUPERSCRIPT_SIZE 14
SUBSCRIPT_X 0
SUBSCRIPT_Y 1
SUBSCRIPT_SIZE 14
FIGURE_WIDTH 15
AVG_LOWERCASE_WIDTH 121
AVG_UPPERCASE_WIDTH 145
ENDPROPERTIES
CHARS 253
STARTCHAR space
ENCODING 32
SWIDTH 305 0
DWIDTH 7 0
BBX 1 1 0 0
BITMAP
00
ENDCHAR
STARTCHAR exclam
ENCODING 33
SWIDTH 333 0
DWIDTH 8 0
BBX 4 17 2 0
BITMAP
60
F0
F0
F0
F0
F0
F0
F0
E0
E0
60
60
00
20
F0
F0
60
ENDCHAR
STARTCHAR quotedbl
ENCODING 34
SWIDTH 333 0
DWIDTH 8 0
BBX 6 7 1 10
BITMAP
CC
CC
CC
CC
CC
CC
CC
ENDCHAR
STARTCHAR numbersign
ENCODING 35
SWIDTH 611 0
DWIDTH 15 0
BBX 12 17 1 0
BITMAP
0C60
0C60
0CE0
0CE0
1CC0
7FF0
7FF0
18C0
18C0
18C0
FFF0
FFF0
3980
3980
3180
3180
3180
ENDCHAR
STARTCHAR dollar
ENCODING 36
SWIDTH 611 0
DWIDTH 15 0
BBX 13 20 1 -2
BITMAP
0E00
0E00
0E00
3FE0
7FE0
FFC0
E000
FE00
7FE0
1FF0
0E78
0E38
0E38
0E70
FFF0
FFE0
7F00
0E00
0E00
0600
ENDCHAR
STARTCHAR percent
ENCODING 37
SWIDTH 944 0
DWIDTH 23 0
BBX 21 17 1 0
BITMAP
3E0600
7F0E00
FF0E00
E39C00
E39C00
E3B800
FF3800
7F7000
3E73C0
00E7F0
00EFF0
01CE70
01CE38
038E70
038FF0
0707F0
0303C0
ENDCHAR
STARTCHAR ampersand
ENCODING 38
SWIDTH 778 0
DWIDTH 19 0
BBX 17 17 1 0
BITMAP
0F8000
1FC000
3FE000
38E000
38EC00
3DEE00
3FCE00
7F8E00
F78E00
E3CE00
E1EE00
E0FE00
E07C00
F07E00
7FFF00
3FE780
0F8380
ENDCHAR
STARTCHAR quotesingle
ENCODING 39
SWIDTH 222 0
DWIDTH 5 0
BBX 3 7 1 10
BITMAP
60
E0
E0
E0
E0
E0
40
ENDCHAR
STARTCHAR parenleft
ENCODING 40
SWIDTH 389 0
DWIDTH 9 0
BBX 7 22 1 -5
BITMAP
06
0E
1E
1C
38
78
70
70
70
E0
E0
E0
E0
70
70
70
78
38
1C
1E
0E
06
ENDCHAR
STARTCHAR parenright
ENCODING 41
SWIDTH 389 0
DWIDTH 9 0
BBX 7 22 1 -5
BITMAP
C0
E0
70
78
38
1C
1C
1E
0E
0E
0E
0E
0E
0E
1E
1C
1C
38
78
70
E0
C0
ENDCHAR
STARTCHAR asterisk
ENCODING 42
SWIDTH 444 0
DWIDTH 11 0
BBX 8 8 1 9
BITMAP
18
18
EB
7F
3C
6F
7B
18
ENDCHAR
STARTCHAR plus
ENCODING 43
SWIDTH 600 0
DWIDTH 14 0
BBX 12 13 1 0
BITMAP
0600
0600
0600
0600
0600
0600
FFF0
FFF0
0600
0600
0600
0600
0600
ENDCHAR
STARTCHAR comma
ENCODING 44
SWIDTH 305 0
DWIDTH 7 0
BBX 5 7 1 -3
BITMAP
30
78
70
70
E0
E0
40
ENDCHAR
STARTCHAR hyphen
ENCODING 45
SWIDTH 333 0
DWIDTH 8 0
BBX 6 3 1 5
BITMAP
78
FC
FC
ENDCHAR
STARTCHAR period
ENCODING 46
SWIDTH 305 0
DWIDTH 7 0
BBX 3 3 2 0
BITMAP
E0
E0
E0
ENDCHAR
STARTCHAR slash
ENCODING 47
SWIDTH 278 0
DWIDTH 7 0
BBX 8 17 -1 0
BITMAP
03
07
07
07
0E
0E
0E
1C
1C
3C
38
38
70
70
70
E0
60
ENDCHAR
STARTCHAR zero
ENCODING 48
SWIDTH 611 0
DWIDTH 15 0
BBX 13 17 1 0
BITMAP
0F80
3FC0
7FE0
78F0
F070
E078
E038
E038
E038
E038
E038
E078
F070
78F0
7FE0
3FC0
0F80
ENDCHAR
STARTCHAR one
ENCODING 49
SWIDTH 611 0
DWIDTH 15 0
BBX 12 17 2 0
BITMAP
0E00
7F00
FF00
7F00
0F00
0F00
0F00
0F00
0F00
0F00
0F00
0F00
0F00
0F00
7FE0
FFF0
7FE0
ENDCHAR
STARTCHAR two
ENCODING 50
SWIDTH 611 0
DWIDTH 15 0
BBX 13 17 1 0
BITMAP
7FC0
7FE0
7FF0
00F0
0070
00F0
01F0
03E0
0FC0
1F80
7E00
7800
F000
E000
FFF0
FFF8
FFF0
ENDCHAR
STARTCHAR three
ENCODING 51
SWIDTH 611 0
DWIDTH 15 0
BBX 13 17 1 0
BITMAP
7FE0
FFF0
7FE0
03C0
0F80
3E00
3FC0
3FE0
00F0
0078
0038
0038
0078
0078
FFF0
FFE0
FF80
ENDCHAR
STARTCHAR four
ENCODING 52
SWIDTH 611 0
DWIDTH 15 0
BBX 15 17 0 0
BITMAP
01E0
03E0
07E0
0FE0
1CE0
38E0
38E0
70E0
70E0
60E0
FFFC
FFFE
7FFC
00E0
00E0
00E0
0060
ENDCHAR
STARTCHAR five
ENCODING 53
SWIDTH 611 0
DWIDTH 15 0
BBX 13 17 1 0
BITMAP
7FE0
7FE0
7FE0
7000
7000
7F00
7FE0
7FF0
00F0
0078
0038
0038
0038
0078
7FF0
FFE0
FF80
ENDCHAR
STARTCHAR six
ENCODING 54
SWIDTH 611 0
DWIDTH 15 0
BBX 13 17 1 0
BITMAP
0FF0
3FF0
3FF0
7800
F000
F7C0
FFE0
FFF0
F878
F078
E038
E038
F078
7070
7FF0
3FE0
0F80
ENDCHAR
STARTCHAR seven
ENCODING 55
SWIDTH 611 0
DWIDTH 15 0
BBX 11 17 2 0
BITMAP
FFE0
FFE0
7FE0
00E0
01E0
01C0
03C0
0780
0F00
0F00
1E00
1C00
1C00
3C00
3C00
1C00
1800
ENDCHAR
STARTCHAR eight
ENCODING 56
SWIDTH 611 0
DWIDTH 15 0
BBX 13 17 1 0
BITMAP
0F80
3FE0
7FF0
70F0
F070
70F0
7FF0
3FE0
7FF0
F0F8
E078
E038
E078
F0F8
FFF0
7FE0
1F80
ENDCHAR
STARTCHAR nine
ENCODING 57
SWIDTH 611 0
DWIDTH 15 0
BBX 13 17 1 0
BITMAP
1F80
3FC0
7FE0
F0F0
E070
E078
E078
E078
F0F8
7FF8
7FF8
1F70
0070
00F0
7FE0
FFC0
FF00
ENDCHAR
STARTCHAR colon
ENCODING 58
SWIDTH 305 0
DWIDTH 7 0
BBX 3 10 2 0
BITMAP
E0
E0
E0
00
00
00
00
E0
E0
E0
ENDCHAR
STARTCHAR semicolon
ENCODING 59
SWIDTH 305 0
DWIDTH 7 0
BBX 4 13 1 -3
BITMAP
70
70
70
00
00
00
30
70
70
70
E0
E0
40
ENDCHAR
STARTCHAR less
ENCODING 60
SWIDTH 600 0
DWIDTH 14 0
BBX 12 13 1 0
BITMAP
0010
0070
03F0
0FE0
3F00
FC00
E000
FC00
3F00
0FE0
03F0
0070
0010
ENDCHAR
STARTCHAR equal
ENCODING 61
SWIDTH 600 0
DWIDTH 14 0
BBX 12 8 1 2
BITMAP
FFF0
FFF0
FFF0
0000
0000
FFF0
FFF0
FFF0
ENDCHAR
STARTCHAR greater
ENCODING 62
SWIDTH 600 0
DWIDTH 14 0
BBX 12 13 1 0
BITMAP
8000
F000
FC00
3F00
0FE0
01F0
0070
01F0
0FE0
3F00
FC00
F000
8000
ENDCHAR
STARTCHAR question
ENCODING 63
SWIDTH 500 0
DWIDTH 12 0
BBX 11 17 0 0
BITMAP
7F80
FFC0
7FE0
00E0
00E0
01E0
03C0
0F80
0F00
1E00
1C00
0C00
0000
0800
1C00
1C00
1C00
ENDCHAR
STARTCHAR at
ENCODING 64
SWIDTH 800 0
DWIDTH 19 0
BBX 17 17 1 0
BITMAP
03F000
0FFC00
1C0E00
300300
71CF80
67F980
E73980
CE1980
CC1980
CC3100
EE7300
6FFE00
77BC00
380300
1C0E00
0FFC00
03F000
ENDCHAR
STARTCHAR A
ENCODING 65
SWIDTH 667 0
DWIDTH 16 0
BBX 14 17 1 0
BITMAP
0700
0780
0FC0
1FC0
1CE0
38E0
3870
3870
7FF8
7FF8
F1F8
E07C
E03C
E01C
E01C
E01C
C00C
ENDCHAR
STARTCHAR B
ENCODING 66
SWIDTH 611 0
DWIDTH 15 0
BBX 13 17 1 0
BITMAP
7FE0
7FF0
FFF0
F070
F070
FEF0
FFE0
FFE0
F1F0
F070
F078
F038
F038
F078
FFF0
FFF0
7FC0
ENDCHAR
STARTCHAR C
ENCODING 67
SWIDTH 611 0
DWIDTH 15 0
BBX 13 17 1 0
BITMAP
0FF8
3FF8
7FF8
7800
F000
F000
E000
E000
F000
F000
7000
7800
3C00
3F00
1FF8
07F8
01F8
ENDCHAR
STARTCHAR D
ENCODING 68
SWIDTH 667 0
DWIDTH 16 0
BBX 13 17 2 0
BITMAP
FC00
FF00
FFC0
E7E0
E1F0
E0F0
E078
E078
E038
E038
E038
E038
E078
E0F0
FFF0
FFE0
FF80
ENDCHAR
STARTCHAR E
ENCODING 69
SWIDTH 556 0
DWIDTH 13 0
BBX 10 17 2 0
BITMAP
FFC0
FFC0
FFC0
E000
E000
FFC0
FFC0
FF80
E000
E000
E000
E000
E000
E000
FFC0
FFC0
FFC0
ENDCHAR
STARTCHAR F
ENCODING 70
SWIDTH 500 0
DWIDTH 12 0
BBX 10 17 2 0
BITMAP
FF80
FFC0
FF80
E000
E000
FF80
FF80
FF80
E000
E000
E000
E000
E000
E000
E000
E000
C000
ENDCHAR
STARTCHAR G
ENCODING 71
SWIDTH 722 0
DWIDTH 17 0
BBX 15 17 1 0
BITMAP
0FFC
3FFC
7FFC
7800
F000
E0FC
E1FE
E1FE
E00E
F00E
F00E
780E
3C0E
3F0E
1FFE
07FE
00FC
ENDCHAR
STARTCHAR H
ENCODING 72
SWIDTH 611 0
DWIDTH 15 0
BBX 12 17 1 0
BITMAP
6070
7070
F070
F070
F070
FFF0
FFF0
FFF0
F070
F070
F070
F070
F070
F070
F070
F070
6070
ENDCHAR
STARTCHAR I
ENCODING 73
SWIDTH 278 0
DWIDTH 7 0
BBX 3 17 2 0
BITMAP
C0
E0
E0
E0
E0
E0
E0
E0
E0
E0
E0
E0
E0
E0
E0
E0
C0
ENDCHAR
STARTCHAR J
ENCODING 74
SWIDTH 444 0
DWIDTH 11 0
BBX 9 17 0 0
BITMAP
0380
0380
0380
0380
0380
0380
0380
0380
0380
0380
0380
0380
0380
4780
FF80
FF00
7C00
ENDCHAR
STARTCHAR K
ENCODING 75
SWIDTH 611 0
DWIDTH 15 0
BBX 12 17 2 0
BITMAP
C060
E0E0
E0E0
E1E0
E3C0
FF80
FF00
FF80
E3C0
E1E0
E0E0
E0F0
E070
E070
E070
E070
C030
ENDCHAR
STARTCHAR L
ENCODING 76
SWIDTH 444 0
DWIDTH 11 0
BBX 9 17 2 0
BITMAP
C000
E000
E000
E000
E000
E000
E000
E000
E000
E000
E000
E000
E000
E000
FF00
FF80
FF80
ENDCHAR
STARTCHAR M
ENCODING 77
SWIDTH 722 0
DWIDTH 17 0
BBX 15 17 1 0
BITMAP
3818
783C
7C3C
7C7C
7E6C
7EEC
77EE
67CE
E38E
E18E
E00E
E00E
E00E
E00E
E00E
E00E
600E
ENDCHAR
STARTCHAR N
ENCODING 78
SWIDTH 611 0
DWIDTH 15 0
BBX 12 17 1 0
BITMAP
7070
7870
F870
FC70
FF70
F7F0
F3F0
F1F0
F070
F070
F070
F070
F070
F070
F070
F070
6070
ENDCHAR
STARTCHAR O
ENCODING 79
SWIDTH 722 0
DWIDTH 17 0
BBX 15 17 1 0
BITMAP
07C0
1FF0
3FF8
783C
701E
F01E
E00E
E00E
E00E
E00E
E00E
F01E
701E
783C
3FF8
1FF0
07E0
ENDCHAR
STARTCHAR P
ENCODING 80
SWIDTH 556 0
DWIDTH 13 0
BBX 11 17 2 0
BITMAP
FFC0
FFE0
FFE0
E0E0
E0E0
E1E0
E7C0
FF80
FE00
F800
E000
E000
E000
E000
E000
E000
C000
ENDCHAR
STARTCHAR Q
ENCODING 81
SWIDTH 722 0
DWIDTH 17 0
BBX 16 21 1 -4
BITMAP
07C0
1FF0
3FF8
783C
701E
F01E
E00E
E00E
E00E
E00E
E78E
F7DE
71DE
78FC
3FF8
1FF0
07F0
0078
003E
003F
000E
ENDCHAR
STARTCHAR R
ENCODING 82
SWIDTH 611 0
DWIDTH 15 0
BBX 13 17 1 0
BITMAP
7FC0
7FF0
FFF0
F070
F070
FEF0
FFE0
FFC0
F1E0
F0F0
F070
F078
F038
F038
F038
F038
6018
ENDCHAR
STARTCHAR S
ENCODING 83
SWIDTH 611 0
DWIDTH 15 0
BBX 13 17 1 0
BITMAP
3FE0
7FE0
FFE0
E000
F000
FF00
7FC0
1FF0
01F0
0078
0038
0038
0078
00F0
FFF0
FFE0
FF80
ENDCHAR
STARTCHAR T
ENCODING 84
SWIDTH 500 0
DWIDTH 12 0
BBX 12 17 0 0
BITMAP
FFF0
FFF0
7FE0
0F00
0F00
0F00
0F00
0F00
0F00
0F00
0F00
0F00
0F00
0F00
0F00
0E00
0600
ENDCHAR
STARTCHAR U
ENCODING 85
SWIDTH 611 0
DWIDTH 15 0
BBX 12 17 1 0
BITMAP
7060
7070
7070
7070
7070
7070
6070
E070
E070
E070
E070
E070
E070
70F0
7FE0
3FE0
0F80
ENDCHAR
STARTCHAR V
ENCODING 86
SWIDTH 611 0
DWIDTH 15 0
BBX 13 17 1 0
BITMAP
C038
E038
E038
E078
E078
E070
F070
7070
70F0
70E0
38E0
39E0
3DC0
1FC0
1F80
0F80
0700
ENDCHAR
STARTCHAR W
ENCODING 87
SWIDTH 833 0
DWIDTH 20 0
BBX 18 17 1 0
BITMAP
C0C0C0
E1E1C0
E1E1C0
E1E1C0
E1E1C0
E1E1C0
E1E1C0
E1E380
71E380
73F380
73F380
733300
3F3F00
3F3F00
3E1F00
1E1E00
0C0C00
ENDCHAR
STARTCHAR X
ENCODING 88
SWIDTH 611 0
DWIDTH 15 0
BBX 14 17 0 0
BITMAP
3018
7038
7838
3C78
1EF0
0FE0
07C0
0FE0
1EE0
3C70
3878
7838
703C
701C
F01C
F01C
601C
ENDCHAR
STARTCHAR Y
ENCODING 89
SWIDTH 556 0
DWIDTH 13 0
BBX 13 17 0 0
BITMAP
6038
F038
7078
7070
7870
38E0
1DE0
1FC0
0F80
0700
0700
0700
0700
0700
0700
0700
0700
ENDCHAR
STARTCHAR Z
ENCODING 90
SWIDTH 500 0
DWIDTH 12 0
BBX 11 17 1 0
BITMAP
7FC0
FFC0
7FC0
01C0
03C0
0380
0780
0F00
1E00
3C00
7800
F000
E000
E000
FFC0
FFE0
FFC0
ENDCHAR
STARTCHAR bracketleft
ENCODING 91
SWIDTH 389 0
DWIDTH 9 0
BBX 7 22 2 -5
BITMAP
FC
FE
FC
E0
E0
E0
E0
E0
E0
E0
E0
E0
E0
E0
E0
E0
E0
E0
E0
E0
FE
FC
ENDCHAR
STARTCHAR backslash
ENCODING 92
SWIDTH 278 0
DWIDTH 7 0
BBX 8 17 -1 0
BITMAP
60
E0
70
70
70
38
38
38
1C
1C
0E
0E
0E
07
07
07
03
ENDCHAR
STARTCHAR bracketright
ENCODING 93
SWIDTH 389 0
DWIDTH 9 0
BBX 7 22 1 -5
BITMAP
FC
FC
7E
0E
0E
0E
0E
0E
0E
0E
0E
0E
0E
0E
0E
0E
0E
0E
0E
0E
FC
FC
ENDCHAR
STARTCHAR asciicircum
ENCODING 94
SWIDTH 600 0
DWIDTH 14 0
BBX 10 9 2 8
BITMAP
0E00
1E00
1F00
3B00
3380
7180
6180
E1C0
C0C0
ENDCHAR
STARTCHAR underscore
ENCODING 95
SWIDTH 500 0
DWIDTH 12 0
BBX 12 1 0 -3
BITMAP
FFF0
ENDCHAR
STARTCHAR grave
ENCODING 96
SWIDTH 278 0
DWIDTH 7 0
BBX 7 3 0 14
BITMAP
E0
F8
7E
ENDCHAR
STARTCHAR a
ENCODING 97
SWIDTH 556 0
DWIDTH 13 0
BBX 10 13 1 0
BITMAP
7F80
7FC0
3FC0
01C0
1FC0
7FC0
F8C0
E0C0
E1C0
E1C0
F3C0
FFC0
3EC0
ENDCHAR
STARTCHAR b
ENCODING 98
SWIDTH 556 0
DWIDTH 13 0
BBX 12 17 1 0
BITMAP
6000
E000
E000
E000
FE00
FF80
FFC0
E3E0
E0E0
E0E0
E0F0
E070
E0F0
E0E0
FFE0
FFC0
7F80
ENDCHAR
STARTCHAR c
ENCODING 99
SWIDTH 500 0
DWIDTH 12 0
BBX 11 13 1 0
BITMAP
1FC0
7FE0
FFC0
F000
E000
E000
E000
E000
F000
7800
3FC0
1FE0
07E0
ENDCHAR
STARTCHAR d
ENCODING 100
SWIDTH 556 0
DWIDTH 13 0
BBX 11 17 1 0
BITMAP
00E0
00E0
00E0
00E0
07E0
1FE0
7FE0
78E0
F0E0
E0E0
E0E0
E0E0
E0E0
E0E0
FFE0
7FE0
1FE0
ENDCHAR
STARTCHAR e
ENCODING 101
SWIDTH 556 0
DWIDTH 13 0
BBX 12 13 1 0
BITMAP
1F00
3FC0
7BE0
F0E0
E0E0
FFF0
FFE0
E000
E000
F000
7FC0
3FE0
1FE0
ENDCHAR
STARTCHAR f
ENCODING 102
SWIDTH 333 0
DWIDTH 8 0
BBX 9 17 0 0
BITMAP
0F00
3F80
3F00
3800
FF00
FF00
7E00
3800
3800
3800
3800
3800
3800
3800
3800
3800
3800
ENDCHAR
STARTCHAR g
ENCODING 103
SWIDTH 556 0
DWIDTH 13 0
BBX 12 18 1 -5
BITMAP
0FE0
3FF0
7FE0
70C0
E0C0
E0C0
E0C0
E0C0
E0C0
E0C0
7FC0
7FE0
1FF0
0070
0070
FFF0
FFE0
3F80
ENDCHAR
STARTCHAR h
ENCODING 104
SWIDTH 556 0
DWIDTH 13 0
BBX 11 17 1 0
BITMAP
6000
E000
E000
E000
EF80
FFC0
FFC0
F0E0
F0E0
E0E0
E0E0
E0E0
E0E0
E0E0
E0E0
E0E0
60E0
ENDCHAR
STARTCHAR i
ENCODING 105
SWIDTH 278 0
DWIDTH 7 0
BBX 3 17 2 0
BITMAP
C0
E0
E0
00
C0
E0
E0
E0
E0
E0
E0
E0
E0
E0
E0
E0
C0
ENDCHAR
STARTCHAR j
ENCODING 106
SWIDTH 222 0
DWIDTH 5 0
BBX 8 22 -4 -5
BITMAP
07
07
07
02
03
07
07
07
07
07
07
07
07
07
07
07
07
07
07
7F
FE
7C
ENDCHAR
STARTCHAR k
ENCODING 107
SWIDTH 500 0
DWIDTH 12 0
BBX 11 17 1 0
BITMAP
6000
E000
E000
E000
E0C0
E1C0
E1C0
E380
EF00
FE00
FF00
E780
E1C0
E1C0
E0E0
E0E0
60C0
ENDCHAR
STARTCHAR l
ENCODING 108
SWIDTH 278 0
DWIDTH 7 0
BBX 3 17 2 0
BITMAP
C0
E0
E0
E0
E0
E0
E0
E0
E0
E0
E0
E0
E0
E0
E0
E0
C0
ENDCHAR
STARTCHAR m
ENCODING 109
SWIDTH 833 0
DWIDTH 20 0
BBX 18 13 1 0
BITMAP
6F1E00
FFBF80
FFFF80
F1E380
E1E1C0
E0C1C0
E0C1C0
E0C1C0
E0C1C0
E0C1C0
E0C1C0
E0C1C0
60C180
ENDCHAR
STARTCHAR n
ENCODING 110
SWIDTH 556 0
DWIDTH 13 0
BBX 11 13 1 0
BITMAP
6F80
FFC0
FFC0
F0E0
F0E0
E0E0
E0E0
E0E0
E0E0
E0E0
E0E0
E0E0
60E0
ENDCHAR
STARTCHAR o
ENCODING 111
SWIDTH 556 0
DWIDTH 13 0
BBX 12 13 1 0
BITMAP
1F00
3FC0
7FE0
F0E0
E0E0
E0F0
E070
E0E0
E0E0
F0E0
7FE0
3FC0
1F00
ENDCHAR
STARTCHAR p
ENCODING 112
SWIDTH 556 0
DWIDTH 13 0
BBX 12 18 1 -5
BITMAP
7E00
FF80
FFC0
E1E0
E0E0
E0E0
E070
E070
E0F0
E0E0
FFE0
FFC0
FF80
E000
E000
E000
E000
6000
ENDCHAR
STARTCHAR q
ENCODING 113
SWIDTH 556 0
DWIDTH 13 0
BBX 11 18 1 -5
BITMAP
07C0
1FE0
7FE0
78E0
F0E0
E0E0
E0E0
E0E0
E0E0
F0E0
FFE0
7FE0
1FE0
00E0
00E0
00E0
00E0
00E0
ENDCHAR
STARTCHAR r
ENCODING 114
SWIDTH 333 0
DWIDTH 8 0
BBX 6 13 2 0
BITMAP
DC
FC
FC
E0
E0
E0
E0
E0
E0
E0
E0
E0
C0
ENDCHAR
STARTCHAR s
ENCODING 115
SWIDTH 500 0
DWIDTH 12 0
BBX 10 13 1 0
BITMAP
7F80
FF80
FF00
E000
FC00
FF80
3FC0
03C0
01C0
01C0
7FC0
FF80
FF00
ENDCHAR
STARTCHAR t
ENCODING 116
SWIDTH 389 0
DWIDTH 9 0
BBX 10 16 0 0
BITMAP
3800
3800
3800
FF80
FF80
7F00
3800
3800
3800
3800
3800
3800
3800
1F80
1FC0
0F80
ENDCHAR
STARTCHAR u
ENCODING 117
SWIDTH 556 0
DWIDTH 13 0
BBX 11 13 1 0
BITMAP
60E0
E0E0
E0E0
E0E0
E0E0
E0E0
E0E0
E0E0
E0E0
71E0
7FE0
7FE0
1EE0
ENDCHAR
STARTCHAR v
ENCODING 118
SWIDTH 500 0
DWIDTH 12 0
BBX 10 13 1 0
BITMAP
C0C0
E1C0
E1C0
E1C0
E1C0
E1C0
7380
7380
7380
3F00
3F00
1E00
0C00
ENDCHAR
STARTCHAR w
ENCODING 119
SWIDTH 722 0
DWIDTH 17 0
BBX 15 13 1 0
BITMAP
C186
E386
E386
E386
E38E
E3CE
67CE
67CE
76EC
7EFC
3E78
3C78
1C30
ENDCHAR
STARTCHAR x
ENCODING 120
SWIDTH 500 0
DWIDTH 12 0
BBX 11 13 0 0
BITMAP
70E0
70E0
70E0
39C0
3FC0
1F80
1F80
3FC0
79E0
70E0
70E0
E0E0
6060
ENDCHAR
STARTCHAR y
ENCODING 121
SWIDTH 500 0
DWIDTH 12 0
BBX 11 18 1 -5
BITMAP
C0C0
E0E0
E0E0
E1C0
E1C0
E1C0
7180
7380
7380
3F00
3F00
1E00
0E00
1C00
3C00
3800
7000
3000
ENDCHAR
STARTCHAR z
ENCODING 122
SWIDTH 444 0
DWIDTH 11 0
BBX 10 13 0 0
BITMAP
7FC0
7FC0
3FC0
03C0
0780
0F00
1E00
3C00
7800
7000
FF80
FFC0
7FC0
ENDCHAR
STARTCHAR braceleft
ENCODING 123
SWIDTH 389 0
DWIDTH 9 0
BBX 7 22 1 -5
BITMAP
1E
1E
38
38
38
38
38
38
38
38
F0
F0
38
38
38
38
38
38
38
38
1E
1E
ENDCHAR
STARTCHAR bar
ENCODING 124
SWIDTH 222 0
DWIDTH 5 0
BBX 3 24 1 -6
BITMAP
E0
E0
E0
E0
E0
E0
E0
E0
E0
E0
E0
E0
E0
E0
E0
E0
E0
E0
E0
E0
E0
E0
E0
E0
ENDCHAR
STARTCHAR braceright
ENCODING 125
SWIDTH 389 0
DWIDTH 9 0
BBX 7 22 1 -5
BITMAP
F0
F8
38
38
38
38
38
38
38
3C
1E
1E
3C
38
38
38
38
38
38
38
F8
F0
ENDCHAR
STARTCHAR asciitilde
ENCODING 126
SWIDTH 600 0
DWIDTH 14 0
BBX 11 4 2 4
BITMAP
7840
FEE0
CFC0
8380
ENDCHAR
STARTCHAR uni00A0
ENCODING 160
SWIDTH 305 0
DWIDTH 7 0
BBX 1 1 0 0
BITMAP
00
ENDCHAR
STARTCHAR exclamdown
ENCODING 161
SWIDTH 333 0
DWIDTH 8 0
BBX 4 17 2 -5
BITMAP
20
F0
F0
60
00
60
60
60
F0
F0
F0
F0
F0
F0
F0
F0
60
ENDCHAR
STARTCHAR cent
ENCODING 162
SWIDTH 611 0
DWIDTH 15 0
BBX 11 18 1 -1
BITMAP
0300
0700
0700
07C0
3FE0
7FE0
F700
E700
E700
E700
F700
7FC0
3FE0
0FE0
0700
0700
0700
0200
ENDCHAR
STARTCHAR sterling
ENCODING 163
SWIDTH 611 0
DWIDTH 15 0
BBX 14 17 0 0
BITMAP
00F8
03FC
07FC
0700
0700
0700
3FF0
7FF8
3FF8
0F00
0F00
0F00
0F00
0E00
7FF8
FFFC
FFF8
ENDCHAR
STARTCHAR currency
ENCODING 164
SWIDTH 611 0
DWIDTH 15 0
BBX 12 12 1 2
BITMAP
4FB0
FFF0
7FE0
7070
E070
E030
E070
7070
70E0
7FF0
FFF0
4200
ENDCHAR
STARTCHAR yen
ENCODING 165
SWIDTH 611 0
DWIDTH 15 0
BBX 13 17 1 0
BITMAP
E030
E078
E070
7070
70F0
79F0
FDF0
7FF0
0F80
7FF0
7FF0
3FE0
0700
0700
0700
0700
0700
ENDCHAR
STARTCHAR brokenbar
ENCODING 166
SWIDTH 222 0
DWIDTH 5 0
BBX 3 20 1 -4
BITMAP
E0
E0
E0
E0
E0
E0
E0
E0
00
00
00
00
E0
E0
E0
E0
E0
E0
E0
E0
ENDCHAR
STARTCHAR section
ENCODING 167
SWIDTH 500 0
DWIDTH 12 0
BBX 10 17 1 0
BITMAP
3F80
7F80
7F00
7000
7800
FF00
FF80
E7C0
F1C0
FDC0
3FC0
0F80
03C0
01C0
07C0
FF80
FF00
ENDCHAR
STARTCHAR dieresis
ENCODING 168
SWIDTH 278 0
DWIDTH 7 0
BBX 9 3 -1 14
BITMAP
6300
E380
6300
ENDCHAR
STARTCHAR copyright
ENCODING 169
SWIDTH 800 0
DWIDTH 19 0
BBX 17 17 1 0
BITMAP
03F000
1FFC00
3C1E00
71E700
63F300
E73B80
EE1980
CE0180
CC0180
CE0180
EE1980
E73B80
63F300
71E700
3C1E00
1FFC00
03F000
ENDCHAR
STARTCHAR ordfeminine
ENCODING 170
SWIDTH 334 0
DWIDTH 8 0
BBX 7 8 0 9
BITMAP
7E
3E
06
7E
66
C6
7E
7A
ENDCHAR
STARTCHAR guillemotleft
ENCODING 171
SWIDTH 500 0
DWIDTH 12 0
BBX 10 10 1 1
BITMAP
1980
39C0
3B80
7380
F700
7780
7380
39C0
39C0
1080
ENDCHAR
STARTCHAR logicalnot
ENCODING 172
SWIDTH 600 0
DWIDTH 14 0
BBX 12 8 1 2
BITMAP
FFF0
FFF0
FFF0
0030
0030
0030
0030
0030
ENDCHAR
STARTCHAR uni00AD
ENCODING 173
SWIDTH 333 0
DWIDTH 8 0
BBX 6 3 1 5
BITMAP
78
FC
FC
ENDCHAR
STARTCHAR registered
ENCODING 174
SWIDTH 800 0
DWIDTH 19 0
BBX 17 17 1 0
BITMAP
03E000
0FF800
3C1E00
300700
77E300
E7F380
E63180
C7F180
C7E180
C6C180
E66180
662380
763300
300700
3C1E00
0FFC00
03F000
ENDCHAR
STARTCHAR macron
ENCODING 175
SWIDTH 278 0
DWIDTH 7 0
BBX 7 2 0 14
BITMAP
FE
FE
ENDCHAR
STARTCHAR degree
ENCODING 176
SWIDTH 400 0
DWIDTH 10 0
BBX 7 7 1 10
BITMAP
3C
7E
46
C2
46
7E
3C
ENDCHAR
STARTCHAR plusminus
ENCODING 177
SWIDTH 600 0
DWIDTH 14 0
BBX 12 13 1 0
BITMAP
0600
0600
0600
0600
FFF0
FFF0
0600
0600
0600
0600
0000
FFF0
FFF0
ENDCHAR
STARTCHAR twosuperior
ENCODING 178
SWIDTH 366 0
DWIDTH 9 0
BBX 8 11 0 6
BITMAP
7E
7F
03
07
07
1E
38
70
E0
FF
FF
ENDCHAR
STARTCHAR threesuperior
ENCODING 179
SWIDTH 366 0
DWIDTH 9 0
BBX 9 11 0 6
BITMAP
FF00
FE00
1C00
7C00
7F00
0700
0380
0380
0300
FF00
FE00
ENDCHAR
STARTCHAR acute
ENCODING 180
SWIDTH 278 0
DWIDTH 7 0
BBX 7 3 0 14
BITMAP
0E
7E
F8
ENDCHAR
STARTCHAR mu
ENCODING 181
SWIDTH 556 0
DWIDTH 13 0
BBX 11 18 1 -5
BITMAP
60E0
E0E0
E0E0
E0E0
E0E0
E0E0
E0E0
E0E0
E0E0
F1E0
FFE0
FFE0
FEE0
E000
E000
E000
E000
6000
ENDCHAR
STARTCHAR paragraph
ENCODING 182
SWIDTH 620 0
DWIDTH 15 0
BBX 13 17 1 0
BITMAP
3FF8
7FF8
FFF8
FF38
FF38
FF38
FF38
7F38
1F38
0738
0738
0738
0738
0738
0738
0738
0738
ENDCHAR
STARTCHAR periodcentered
ENCODING 183
SWIDTH 305 0
DWIDTH 7 0
BBX 3 4 2 4
BITMAP
E0
E0
E0
40
ENDCHAR
STARTCHAR cedilla
ENCODING 184
SWIDTH 278 0
DWIDTH 7 0
BBX 6 6 0 -5
BITMAP
10
20
3C
0C
CC
7C
ENDCHAR
STARTCHAR onesuperior
ENCODING 185
SWIDTH 366 0
DWIDTH 9 0
BBX 7 11 1 6
BITMAP
30
F8
F8
38
38
38
38
38
38
FE
FE
ENDCHAR
STARTCHAR ordmasculine
ENCODING 186
SWIDTH 334 0
DWIDTH 8 0
BBX 8 8 0 9
BITMAP
3C
7E
E7
C3
C3
E7
7E
3C
ENDCHAR
STARTCHAR guillemotright
ENCODING 187
SWIDTH 500 0
DWIDTH 12 0
BBX 9 10 1 1
BITMAP
6600
E700
7700
7380
3B80
7B80
7380
E700
E700
4200
ENDCHAR
STARTCHAR onequarter
ENCODING 188
SWIDTH 916 0
DWIDTH 22 0
BBX 20 17 1 0
BITMAP
300300
F80300
F80700
380F00
380E00
381C00
383800
383800
3871E0
FEE7E0
FEE6E0
01CCE0
039CE0
039FF0
071FF0
0E00E0
0E00C0
ENDCHAR
STARTCHAR onehalf
ENCODING 189
SWIDTH 916 0
DWIDTH 22 0
BBX 20 17 1 0
BITMAP
300300
F00700
F00F00
300E00
301C00
303C00
303800
307000
30F7E0
FEE7F0
FFC030
038070
0381E0
070780
0E0E00
0E0FF0
0C0FF0
ENDCHAR
STARTCHAR threequarters
ENCODING 190
SWIDTH 916 0
DWIDTH 22 0
BBX 21 17 1 0
BITMAP
FE0180
FE0380
1C0700
780F00
7E0E00
071C00
031C00
033840
0371E0
FF73E0
FEE760
01CE60
01CC60
038FF8
070FF8
070060
060060
ENDCHAR
STARTCHAR questiondown
ENCODING 191
SWIDTH 500 0
DWIDTH 12 0
BBX 11 17 1 -5
BITMAP
0200
0700
0700
0700
0000
0200
0700
0700
0E00
3E00
7C00
F000
E000
E000
FFC0
7FE0
3FC0
ENDCHAR
STARTCHAR Agrave
ENCODING 192
SWIDTH 667 0
DWIDTH 16 0
BBX 14 21 1 0
BITMAP
0C00
0F80
0FC0
0040
0700
0780
0FC0
1FC0
1CE0
38E0
3870
3870
7FF8
7FF8
F1F8
E07C
E03C
E01C
E01C
E01C
C00C
ENDCHAR
STARTCHAR Aacute
ENCODING 193
SWIDTH 667 0
DWIDTH 16 0
BBX 14 21 1 0
BITMAP
00C0
07C0
0FC0
0C00
0700
0780
0FC0
1FC0
1CE0
38E0
3870
3870
7FF8
7FF8
F1F8
E07C
E03C
E01C
E01C
E01C
C00C
ENDCHAR
STARTCHAR Acircumflex
ENCODING 194
SWIDTH 667 0
DWIDTH 16 0
BBX 14 22 1 0
BITMAP
0300
0780
0FC0
1CE0
0000
0700
0780
0FC0
1FC0
1CE0
38E0
3870
3870
7FF8
7FF8
F1F8
E07C
E03C
E01C
E01C
E01C
C00C
ENDCHAR
STARTCHAR Atilde
ENCODING 195
SWIDTH 667 0
DWIDTH 16 0
BBX 14 21 1 0
BITMAP
0C20
1FE0
13C0
0000
0700
0780
0FC0
1FC0
1CE0
38E0
3870
3870
7FF8
7FF8
F1F8
E07C
E03C
E01C
E01C
E01C
C00C
ENDCHAR
STARTCHAR Adieresis
ENCODING 196
SWIDTH 667 0
DWIDTH 16 0
BBX 14 21 1 0
BITMAP
1860
1CE0
1860
0000
0700
0780
0FC0
1FC0
1CE0
38E0
3870
3870
7FF8
7FF8
F1F8
E07C
E03C
E01C
E01C
E01C
C00C
ENDCHAR
STARTCHAR Aring
ENCODING 197
SWIDTH 667 0
DWIDTH 16 0
BBX 14 22 1 0
BITMAP
0780
0CC0
0CC0
0780
0000
0700
0780
0FC0
1FC0
1CE0
38E0
3870
3870
7FF8
7FF8
F1F8
E07C
E03C
E01C
E01C
E01C
C00C
ENDCHAR
STARTCHAR AE
ENCODING 198
SWIDTH 889 0
DWIDTH 21 0
BBX 21 17 0 0
BITMAP
007FF8
01FFF8
03FFF0
07B800
0F3800
0E3FE0
1CFFF0
3BFFF0
3FF800
3E3800
7C3800
783800
F03800
E03800
E03FF0
E03FF8
C01FF8
ENDCHAR
STARTCHAR Ccedilla
ENCODING 199
SWIDTH 611 0
DWIDTH 15 0
BBX 13 22 1 -5
BITMAP
0FF8
3FF8
7FF8
7800
F000
F000
E000
E000
F000
F000
7000
7800
3C00
3F00
1FF8
07F8
01F8
0100
03C0
0060
04E0
07C0
ENDCHAR
STARTCHAR Egrave
ENCODING 200
SWIDTH 556 0
DWIDTH 13 0
BBX 10 21 2 0
BITMAP
3000
7E00
1F00
0000
FFC0
FFC0
FFC0
E000
E000
FFC0
FFC0
FF80
E000
E000
E000
E000
E000
E000
FFC0
FFC0
FFC0
ENDCHAR
STARTCHAR Eacute
ENCODING 201
SWIDTH 556 0
DWIDTH 13 0
BBX 10 21 2 0
BITMAP
0300
1F00
3E00
2000
FFC0
FFC0
FFC0
E000
E000
FFC0
FFC0
FF80
E000
E000
E000
E000
E000
E000
FFC0
FFC0
FFC0
ENDCHAR
STARTCHAR Ecircumflex
ENCODING 202
SWIDTH 556 0
DWIDTH 13 0
BBX 10 22 2 0
BITMAP
0C00
1E00
3700
7300
0000
FFC0
FFC0
FFC0
E000
E000
FFC0
FFC0
FF80
E000
E000
E000
E000
E000
E000
FFC0
FFC0
FFC0
ENDCHAR
STARTCHAR Edieresis
ENCODING 203
SWIDTH 556 0
DWIDTH 13 0
BBX 10 21 2 0
BITMAP
6380
7380
6380
0000
FFC0
FFC0
FFC0
E000
E000
FFC0
FFC0
FF80
E000
E000
E000
E000
E000
E000
FFC0
FFC0
FFC0
ENDCHAR
STARTCHAR Igrave
ENCODING 204
SWIDTH 278 0
DWIDTH 7 0
BBX 7 21 0 0
BITMAP
C0
F8
7E
04
30
38
38
38
38
38
38
38
38
38
38
38
38
38
38
38
30
ENDCHAR
STARTCHAR Iacute
ENCODING 205
SWIDTH 278 0
DWIDTH 7 0
BBX 7 21 0 0
BITMAP
0C
7E
FC
00
30
38
38
38
38
38
38
38
38
38
38
38
38
38
38
38
30
ENDCHAR
STARTCHAR Icircumflex
ENCODING 206
SWIDTH 278 0
DWIDTH 7 0
BBX 7 22 0 0
BITMAP
30
78
6C
C6
00
30
38
38
38
38
38
38
38
38
38
38
38
38
38
38
38
30
ENDCHAR
STARTCHAR Idieresis
ENCODING 207
SWIDTH 278 0
DWIDTH 7 0
BBX 9 21 -1 0
BITMAP
6300
E380
6300
0000
1800
1C00
1C00
1C00
1C00
1C00
1C00
1C00
1C00
1C00
1C00
1C00
1C00
1C00
1C00
1C00
1800
ENDCHAR
STARTCHAR Eth
ENCODING 208
SWIDTH 667 0
DWIDTH 16 0
BBX 15 17 0 0
BITMAP
3F00
3FC0
3FF0
39F8
3878
383C
381C
FF1E
FF1E
7E0E
380E
380E
381E
383C
3FFC
3FF8
3FE0
ENDCHAR
STARTCHAR Ntilde
ENCODING 209
SWIDTH 611 0
DWIDTH 15 0
BBX 12 21 1 0
BITMAP
0C40
1FC0
2380
0000
7070
7870
F870
FC70
FF70
F7F0
F3F0
F1F0
F070
F070
F070
F070
F070
F070
F070
F070
6070
ENDCHAR
STARTCHAR Ograve
ENCODING 210
SWIDTH 722 0
DWIDTH 17 0
BBX 15 21 1 0
BITMAP
0400
0F80
07E0
0040
07C0
1FF0
3FF8
783C
701E
F01E
E00E
E00E
E00E
E00E
E00E
F01E
701E
783C
3FF8
1FF0
07E0
ENDCHAR
STARTCHAR Oacute
ENCODING 211
SWIDTH 722 0
DWIDTH 17 0
BBX 15 21 1 0
BITMAP
0060
03E0
0FC0
0400
07C0
1FF0
3FF8
783C
701E
F01E
E00E
E00E
E00E
E00E
E00E
F01E
701E
783C
3FF8
1FF0
07E0
ENDCHAR
STARTCHAR Ocircumflex
ENCODING 212
SWIDTH 722 0
DWIDTH 17 0
BBX 15 22 1 0
BITMAP
0180
03C0
06C0
0C60
0000
07C0
1FF0
3FF8
783C
701E
F01E
E00E
E00E
E00E
E00E
E00E
F01E
701E
783C
3FF8
1FF0
07E0
ENDCHAR
STARTCHAR Otilde
ENCODING 213
SWIDTH 722 0
DWIDTH 17 0
BBX 15 21 1 0
BITMAP
0610
0FE0
09E0
0000
07C0
1FF0
3FF8
783C
701E
F01E
E00E
E00E
E00E
E00E
E00E
F01E
701E
783C
3FF8
1FF0
07E0
ENDCHAR
STARTCHAR Odieresis
ENCODING 214
SWIDTH 722 0
DWIDTH 17 0
BBX 15 21 1 0
BITMAP
0C60
1C70
0C60
0000
07C0
1FF0
3FF8
783C
701E
F01E
E00E
E00E
E00E
E00E
E00E
F01E
701E
783C
3FF8
1FF0
07E0
ENDCHAR
STARTCHAR multiply
ENCODING 215
SWIDTH 600 0
DWIDTH 14 0
BBX 12 13 1 0
BITMAP
4020
E070
70F0
39E0
1FC0
1F80
0F00
1F80
1FC0
39E0
70F0
E070
4020
ENDCHAR
STARTCHAR Oslash
ENCODING 216
SWIDTH 722 0
DWIDTH 17 0
BBX 15 21 1 -2
BITMAP
0018
0038
07F8
1FF0
3FF8
78FC
70FE
F1DE
E1CE
E38E
E38E
E78E
F70E
F71E
7E1E
7E3C
3FF8
1FF0
3FE0
3800
3000
ENDCHAR
STARTCHAR Ugrave
ENCODING 217
SWIDTH 611 0
DWIDTH 15 0
BBX 12 21 1 0
BITMAP
1800
1F00
0FC0
0080
7060
7070
7070
7070
7070
7070
6070
E070
E070
E070
E070
E070
E070
70F0
7FE0
3FE0
0F80
ENDCHAR
STARTCHAR Uacute
ENCODING 218
SWIDTH 611 0
DWIDTH 15 0
BBX 12 21 1 0
BITMAP
0180
0FC0
1F80
0000
7060
7070
7070
7070
7070
7070
6070
E070
E070
E070
E070
E070
E070
70F0
7FE0
3FE0
0F80
ENDCHAR
STARTCHAR Ucircumflex
ENCODING 219
SWIDTH 611 0
DWIDTH 15 0
BBX 12 22 1 0
BITMAP
0600
0F00
0D80
18C0
0000
7060
7070
7070
7070
7070
7070
6070
E070
E070
E070
E070
E070
E070
70F0
7FE0
3FE0
0F80
ENDCHAR
STARTCHAR Udieresis
ENCODING 220
SWIDTH 611 0
DWIDTH 15 0
BBX 12 21 1 0
BITMAP
18C0
38E0
18C0
0000
7060
7070
7070
7070
7070
7070
6070
E070
E070
E070
E070
E070
E070
70F0
7FE0
3FE0
0F80
ENDCHAR
STARTCHAR Yacute
ENCODING 221
SWIDTH 556 0
DWIDTH 13 0
BBX 13 21 0 0
BITMAP
00C0
07C0
0F80
0800
6038
F038
7078
7070
7870
38E0
1DE0
1FC0
0F80
0700
0700
0700
0700
0700
0700
0700
0700
ENDCHAR
STARTCHAR Thorn
ENCODING 222
SWIDTH 556 0
DWIDTH 13 0
BBX 11 17 2 0
BITMAP
C000
E000
E000
FFC0
FFE0
FFE0
E0E0
E0E0
E1E0
E7C0
FF80
FE00
F000
E000
E000
E000
C000
ENDCHAR
STARTCHAR germandbls
ENCODING 223
SWIDTH 556 0
DWIDTH 13 0
BBX 13 17 0 0
BITMAP
1F80
3FC0
3FC0
30E0
71C0
F380
F700
3700
37C0
33F0
30F0
3038
3038
3078
3FF0
3FF0
3FC0
ENDCHAR
STARTCHAR agrave
ENCODING 224
SWIDTH 556 0
DWIDTH 13 0
BBX 10 18 1 0
BITMAP
1000
3E00
1F80
0100
0000
7F80
7FC0
3FC0
01C0
1FC0
7FC0
F8C0
E0C0
E1C0
E1C0
F3C0
FFC0
3EC0
ENDCHAR
STARTCHAR aacute
ENCODING 225
SWIDTH 556 0
DWIDTH 13 0
BBX 10 18 1 0
BITMAP
0100
0F80
3F00
1800
0000
7F80
7FC0
3FC0
01C0
1FC0
7FC0
F8C0
E0C0
E1C0
E1C0
F3C0
FFC0
3EC0
ENDCHAR
STARTCHAR acircumflex
ENCODING 226
SWIDTH 556 0
DWIDTH 13 0
BBX 10 17 1 0
BITMAP
0E00
1F00
3B80
3180
7F80
7FC0
3FC0
01C0
1FC0
7FC0
F8C0
E0C0
E1C0
E1C0
F3C0
FFC0
3EC0
ENDCHAR
STARTCHAR atilde
ENCODING 227
SWIDTH 556 0
DWIDTH 13 0
BBX 10 17 1 0
BITMAP
18C0
3F80
0300
0000
7F80
7FC0
3FC0
01C0
1FC0
7FC0
F8C0
E0C0
E1C0
E1C0
F3C0
FFC0
3EC0
ENDCHAR
STARTCHAR adieresis
ENCODING 228
SWIDTH 556 0
DWIDTH 13 0
BBX 10 18 1 0
BITMAP
3180
71C0
3180
0000
0000
7F80
7FC0
3FC0
01C0
1FC0
7FC0
F8C0
E0C0
E1C0
E1C0
F3C0
FFC0
3EC0
ENDCHAR
STARTCHAR aring
ENCODING 229
SWIDTH 556 0
DWIDTH 13 0
BBX 10 19 1 0
BITMAP
0E00
1300
1100
0E00
0000
0000
7F80
7FC0
3FC0
01C0
1FC0
7FC0
F8C0
E0C0
E1C0
E1C0
F3C0
FFC0
3EC0
ENDCHAR
STARTCHAR ae
ENCODING 230
SWIDTH 778 0
DWIDTH 19 0
BBX 18 13 0 0
BITMAP
7F1E00
7FFF80
3FF3C0
01E1C0
01E0C0
1FFFC0
7FFFC0
79C000
E1E000
E1E000
FFFFC0
7FFFC0
3F1FC0
ENDCHAR
STARTCHAR ccedilla
ENCODING 231
SWIDTH 500 0
DWIDTH 12 0
BBX 11 18 1 -5
BITMAP
1FC0
7FE0
7FC0
F000
E000
E000
E000
E000
F000
7800
3FC0
1FE0
07E0
0400
0780
0180
1980
0F00
ENDCHAR
STARTCHAR egrave
ENCODING 232
SWIDTH 556 0
DWIDTH 13 0
BBX 12 18 1 0
BITMAP
1000
3E00
1F80
0380
0000
1F00
3FC0
7BE0
F0E0
E0E0
FFF0
FFE0
E000
E000
F000
7FC0
3FE0
1FE0
ENDCHAR
STARTCHAR eacute
ENCODING 233
SWIDTH 556 0
DWIDTH 13 0
BBX 12 17 1 0
BITMAP
0780
1F80
1800
0000
1F00
3FC0
7BE0
F0E0
E0E0
FFF0
FFE0
E000
E000
F000
7FC0
3FE0
1FE0
ENDCHAR
STARTCHAR ecircumflex
ENCODING 234
SWIDTH 556 0
DWIDTH 13 0
BBX 12 17 1 0
BITMAP
0E00
0F00
1980
3180
1F00
3FC0
7BE0
F0E0
E0E0
FFF0
FFE0
E000
E000
F000
7FC0
3FE0
1FE0
ENDCHAR
STARTCHAR edieresis
ENCODING 235
SWIDTH 556 0
DWIDTH 13 0
BBX 12 17 1 0
BITMAP
31C0
39C0
31C0
0000
1F00
3FC0
7BE0
F0E0
E0E0
FFF0
FFE0
E000
E000
F000
7FC0
3FE0
1FE0
ENDCHAR
STARTCHAR igrave
ENCODING 236
SWIDTH 278 0
DWIDTH 7 0
BBX 6 17 0 0
BITMAP
F0
FC
0C
00
30
38
38
38
38
38
38
38
38
38
38
38
30
ENDCHAR
STARTCHAR iacute
ENCODING 237
SWIDTH 278 0
DWIDTH 7 0
BBX 7 17 0 0
BITMAP
3E
FE
E0
00
30
38
38
38
38
38
38
38
38
38
38
38
30
ENDCHAR
STARTCHAR icircumflex
ENCODING 238
SWIDTH 278 0
DWIDTH 7 0
BBX 7 17 0 0
BITMAP
38
7C
EC
C6
30
38
38
38
38
38
38
38
38
38
38
38
30
ENDCHAR
STARTCHAR idieresis
ENCODING 239
SWIDTH 278 0
DWIDTH 7 0
BBX 9 17 -1 0
BITMAP
6300
E380
6300
0000
1800
1C00
1C00
1C00
1C00
1C00
1C00
1C00
1C00
1C00
1C00
1C00
1800
ENDCHAR
STARTCHAR eth
ENCODING 240
SWIDTH 556 0
DWIDTH 13 0
BBX 11 17 1 0
BITMAP
7980
7F80
1F00
3F80
11C0
01C0
3FE0
7FE0
F1E0
E0E0
E0E0
E0E0
E0E0
F0E0
7FC0
3FC0
1F00
ENDCHAR
STARTCHAR ntilde
ENCODING 241
SWIDTH 556 0
DWIDTH 13 0
BBX 11 17 1 0
BITMAP
1C40
3F80
2300
0000
6F80
FFC0
FFC0
F0E0
F0E0
E0E0
E0E0
E0E0
E0E0
E0E0
E0E0
E0E0
60E0
ENDCHAR
STARTCHAR ograve
ENCODING 242
SWIDTH 556 0
DWIDTH 13 0
BBX 12 18 1 0
BITMAP
1000
3E00
3F80
0380
0000
1F00
3FC0
7FE0
F0E0
E0E0
E0F0
E070
E0E0
E0E0
F0E0
7FE0
3FC0
1F00
ENDCHAR
STARTCHAR oacute
ENCODING 243
SWIDTH 556 0
DWIDTH 13 0
BBX 12 17 1 0
BITMAP
0780
1F80
1800
0000
1F00
3FC0
7FE0
F0E0
E0E0
E0F0
E070
E0E0
E0E0
F0E0
7FE0
3FC0
1F00
ENDCHAR
STARTCHAR ocircumflex
ENCODING 244
SWIDTH 556 0
DWIDTH 13 0
BBX 12 17 1 0
BITMAP
0E00
1F00
1B80
3180
1F00
3FC0
7FE0
F0E0
E0E0
E0F0
E070
E0E0
E0E0
F0E0
7FE0
3FC0
1F00
ENDCHAR
STARTCHAR otilde
ENCODING 245
SWIDTH 556 0
DWIDTH 13 0
BBX 12 17 1 0
BITMAP
1840
3F80
0300
0000
1F00
3FC0
7FE0
F0E0
E0E0
E0F0
E070
E0E0
E0E0
F0E0
7FE0
3FC0
1F00
ENDCHAR
STARTCHAR odieresis
ENCODING 246
SWIDTH 556 0
DWIDTH 13 0
BBX 12 17 1 0
BITMAP
3180
71C0
3180
0000
1F00
3FC0
7FE0
F0E0
E0E0
E0F0
E070
E0E0
E0E0
F0E0
7FE0
3FC0
1F00
ENDCHAR
STARTCHAR divide
ENCODING 247
SWIDTH 600 0
DWIDTH 14 0
BBX 12 14 1 -1
BITMAP
0700
0F00
0F00
0600
0000
0000
FFF0
FFF0
0000
0000
0700
0F00
0F00
0600
ENDCHAR
STARTCHAR oslash
ENCODING 248
SWIDTH 556 0
DWIDTH 13 0
BBX 12 17 1 -2
BITMAP
0040
00E0
1FC0
3FC0
7FE0
F3E0
E3E0
E6F0
E670
ECE0
ECE0
F8E0
7FE0
3FC0
7F00
6000
6000
ENDCHAR
STARTCHAR ugrave
ENCODING 249
SWIDTH 556 0
DWIDTH 13 0
BBX 11 18 1 0
BITMAP
1000
3E00
3F80
0380
0000
60E0
E0E0
E0E0
E0E0
E0E0
E0E0
E0E0
E0E0
E0E0
71E0
7FE0
7FE0
1EE0
ENDCHAR
STARTCHAR uacute
ENCODING 250
SWIDTH 556 0
DWIDTH 13 0
BBX 11 17 1 0
BITMAP
0780
1F80
1800
0000
60E0
E0E0
E0E0
E0E0
E0E0
E0E0
E0E0
E0E0
E0E0
71E0
7FE0
7FE0
1EE0
ENDCHAR
STARTCHAR ucircumflex
ENCODING 251
SWIDTH 556 0
DWIDTH 13 0
BBX 11 17 1 0
BITMAP
0E00
1F00
1B80
3180
60E0
E0E0
E0E0
E0E0
E0E0
E0E0
E0E0
E0E0
E0E0
71E0
7FE0
7FE0
1EE0
ENDCHAR
STARTCHAR udieresis
ENCODING 252
SWIDTH 556 0
DWIDTH 13 0
BBX 11 17 1 0
BITMAP
3180
71C0
3180
0000
60E0
E0E0
E0E0
E0E0
E0E0
E0E0
E0E0
E0E0
E0E0
71E0
7FE0
7FE0
1EE0
ENDCHAR
STARTCHAR yacute
ENCODING 253
SWIDTH 500 0
DWIDTH 12 0
BBX 11 23 1 -5
BITMAP
0100
0F00
3F00
3000
0000
C0C0
E0E0
E0E0
E1C0
E1C0
E1C0
7180
7380
7380
3F00
3F00
1E00
0E00
1C00
3C00
3800
7000
3000
ENDCHAR
STARTCHAR thorn
ENCODING 254
SWIDTH 556 0
DWIDTH 13 0
BBX 12 22 1 -5
BITMAP
6000
E000
E000
E000
FC00
FF80
FFC0
E1E0
E0E0
E0E0
E070
E070
E0F0
E0E0
FFE0
FFC0
FF80
E000
E000
E000
E000
6000
ENDCHAR
STARTCHAR ydieresis
ENCODING 255
SWIDTH 500 0
DWIDTH 12 0
BBX 11 22 1 -5
BITMAP
6180
7380
6180
0000
C0C0
E0E0
E0E0
E1C0
E1C0
E1C0
7180
7380
7380
3F00
3F00
1E00
0E00
1C00
3C00
3800
7000
3000
ENDCHAR
STARTCHAR .notdef
ENCODING -1
SWIDTH 500 0
DWIDTH 12 0
BBX 12 17 0 0
BITMAP
FFF0
C030
E070
A050
9090
9990
8910
8610
8610
8610
8910
9990
9090
A050
E070
C030
FFF0
ENDCHAR
STARTCHAR quoteright
ENCODING -1
SWIDTH 222 0
DWIDTH 5 0
BBX 4 7 1 10
BITMAP
70
70
F0
E0
E0
C0
80
ENDCHAR
STARTCHAR quoteleft
ENCODING -1
SWIDTH 222 0
DWIDTH 5 0
BBX 5 7 0 10
BITMAP
60
E0
70
70
38
38
10
ENDCHAR
STARTCHAR fraction
ENCODING -1
SWIDTH 167 0
DWIDTH 4 0
BBX 12 17 -4 0
BITMAP
0030
0070
00F0
00E0
01C0
03C0
0380
0700
0F00
0E00
1C00
3C00
3800
7000
F000
E000
C000
ENDCHAR
STARTCHAR florin
ENCODING -1
SWIDTH 611 0
DWIDTH 15 0
BBX 15 22 0 -5
BITMAP
007C
00FE
01FC
01E0
01C0
03C0
1FF0
1FF8
1FF0
0380
0380
0780
0780
0700
0700
0700
0700
0F00
0E00
FE00
FC00
F800
ENDCHAR
STARTCHAR quotedblleft
ENCODING -1
SWIDTH 389 0
DWIDTH 9 0
BBX 9 7 0 10
BITMAP
E600
E700
F700
7700
7380
3B80
1180
ENDCHAR
STARTCHAR guilsinglleft
ENCODING -1
SWIDTH 333 0
DWIDTH 8 0
BBX 4 10 2 1
BITMAP
30
30
70
F0
E0
E0
70
70
30
10
ENDCHAR
STARTCHAR guilsinglright
ENCODING -1
SWIDTH 333 0
DWIDTH 8 0
BBX 5 10 1 1
BITMAP
60
E0
70
78
38
38
70
70
E0
40
ENDCHAR
STARTCHAR fi
ENCODING -1
SWIDTH 611 0
DWIDTH 15 0
BBX 13 17 0 0
BITMAP
0FF0
1FF8
3FF8
3810
FFF0
FFF8
7FF8
3838
3838
3838
3838
3838
3838
3838
3838
3838
3830
ENDCHAR
STARTCHAR fl
ENCODING -1
SWIDTH 611 0
DWIDTH 15 0
BBX 13 17 0 0
BITMAP
0FF0
1FF8
3FF8
3838
FF38
FF38
7E38
3838
3838
3838
3838
3838
3838
3838
3838
3838
3830
ENDCHAR
STARTCHAR endash
ENCODING -1
SWIDTH 500 0
DWIDTH 12 0
BBX 12 2 0 5
BITMAP
FFF0
FFF0
ENDCHAR
STARTCHAR dagger
ENCODING -1
SWIDTH 444 0
DWIDTH 11 0
BBX 8 17 1 0
BITMAP
18
1C
1C
1C
FF
FF
1C
1C
1C
1C
1C
1C
1C
1C
1C
1C
18
ENDCHAR
STARTCHAR daggerdbl
ENCODING -1
SWIDTH 444 0
DWIDTH 11 0
BBX 8 17 1 0
BITMAP
18
1C
1C
1C
FF
FF
1C
1C
1C
1C
1C
7F
FF
5C
1C
1C
18
ENDCHAR
STARTCHAR bullet
ENCODING -1
SWIDTH 500 0
DWIDTH 12 0
BBX 8 8 2 4
BITMAP
3C
7E
FF
FF
FF
FF
7E
3C
ENDCHAR
STARTCHAR quotesinglbase
ENCODING -1
SWIDTH 222 0
DWIDTH 5 0
BBX 4 7 1 -3
BITMAP
70
70
F0
E0
E0
C0
80
ENDCHAR
STARTCHAR quotedblbase
ENCODING -1
SWIDTH 389 0
DWIDTH 9 0
BBX 9 7 0 -3
BITMAP
3180
3B80
7380
7700
6700
E600
4400
ENDCHAR
STARTCHAR quotedblright
ENCODING -1
SWIDTH 389 0
DWIDTH 9 0
BBX 9 7 0 10
BITMAP
3180
3B80
7380
7700
6700
E600
4400
ENDCHAR
STARTCHAR ellipsis
ENCODING -1
SWIDTH 1000 0
DWIDTH 24 0
BBX 20 3 2 0
BITMAP
F0F0F0
F0F0F0
606060
ENDCHAR
STARTCHAR perthousand
ENCODING -1
SWIDTH 1000 0
DWIDTH 24 0
BBX 24 17 0 0
BITMAP
3C1800
7E1800
FE3800
E67000
C66000
E6E000
FEC000
7FC000
3DBC3C
03FE7E
037F7F
076767
06E7E3
0CE767
1C7F7F
187E7E
183C3C
ENDCHAR
STARTCHAR circumflex
ENCODING -1
SWIDTH 278 0
DWIDTH 7 0
BBX 7 4 0 13
BITMAP
38
7C
EC
C6
ENDCHAR
STARTCHAR tilde
ENCODING -1
SWIDTH 278 0
DWIDTH 7 0
BBX 8 3 -1 14
BITMAP
31
7F
8E
ENDCHAR
STARTCHAR breve
ENCODING -1
SWIDTH 278 0
DWIDTH 7 0
BBX 7 4 0 13
BITMAP
82
86
FC
78
ENDCHAR
STARTCHAR dotaccent
ENCODING -1
SWIDTH 278 0
DWIDTH 7 0
BBX 3 3 2 14
BITMAP
C0
E0
C0
ENDCHAR
STARTCHAR ring
ENCODING -1
SWIDTH 278 0
DWIDTH 7 0
BBX 5 4 1 14
BITMAP
F0
98
98
F0
ENDCHAR
STARTCHAR hungarumlaut
ENCODING -1
SWIDTH 278 0
DWIDTH 7 0
BBX 9 6 -1 12
BITMAP
3180
3380
6700
E600
CC00
8000
ENDCHAR
STARTCHAR ogonek
ENCODING -1
SWIDTH 278 0
DWIDTH 7 0
BBX 5 5 1 -5
BITMAP
38
C0
C0
C8
F0
ENDCHAR
STARTCHAR caron
ENCODING -1
SWIDTH 278 0
DWIDTH 7 0
BBX 7 4 0 13
BITMAP
C6
6C
78
30
ENDCHAR
STARTCHAR emdash
ENCODING -1
SWIDTH 1000 0
DWIDTH 24 0
BBX 24 2 0 5
BITMAP
FFFFFF
FFFFFF
ENDCHAR
STARTCHAR Lslash
ENCODING -1
SWIDTH 444 0
DWIDTH 11 0
BBX 11 17 0 0
BITMAP
3000
3800
3800
3800
3800
3800
3F00
3F00
FE00
F800
F800
3800
3800
3800
3FC0
3FE0
3FE0
ENDCHAR
STARTCHAR OE
ENCODING -1
SWIDTH 1000 0
DWIDTH 24 0
BBX 22 17 1 0
BITMAP
07CFFC
1FFFFC
3FFFFC
783E00
701E00
F01FF8
E01FFC
E00FFC
E00E00
E00E00
E01E00
F01E00
701E00
783E00
3FFFF8
1FFFFC
07CFFC
ENDCHAR
STARTCHAR dotlessi
ENCODING -1
SWIDTH 278 0
DWIDTH 7 0
BBX 3 13 2 0
BITMAP
C0
E0
E0
E0
E0
E0
E0
E0
E0
E0
E0
E0
C0
ENDCHAR
STARTCHAR lslash
ENCODING -1
SWIDTH 278 0
DWIDTH 7 0
BBX 7 17 0 0
BITMAP
30
38
38
38
38
3E
3E
7C
F8
F8
38
38
38
38
38
38
30
ENDCHAR
STARTCHAR oe
ENCODING -1
SWIDTH 833 0
DWIDTH 20 0
BBX 19 13 1 0
BITMAP
1E1F00
7FBF80
FFFBC0
E1F1C0
E1E0E0
C0FFE0
C0FFC0
C0E000
E1E000
E1F000
7FFFC0
7FBFE0
1E1FE0
ENDCHAR
STARTCHAR trademark
ENCODING -1
SWIDTH 1000 0
DWIDTH 24 0
BBX 22 11 1 6
BITMAP
FF3C3C
FF3C3C
183E3C
183E7C
183E7C
183FFC
183BDC
183BDC
183BDC
18399C
18399C
ENDCHAR
STARTCHAR minus
ENCODING -1
SWIDTH 600 0
DWIDTH 14 0
BBX 12 2 1 5
BITMAP
FFF0
FFF0
ENDCHAR
STARTCHAR Scaron
ENCODING -1
SWIDTH 611 0
DWIDTH 15 0
BBX 13 22 1 0
BITMAP
18C0
0DC0
0F80
0700
0000
3FE0
7FE0
FFE0
E000
F000
FF00
7FC0
1FF0
01F0
0078
0038
0038
0078
00F0
FFF0
FFE0
FF80
ENDCHAR
STARTCHAR Ydieresis
ENCODING -1
SWIDTH 556 0
DWIDTH 13 0
BBX 13 21 0 0
BITMAP
1860
1CE0
1860
0000
6038
F038
7078
7070
7870
38E0
1DE0
1FC0
0F80
0700
0700
0700
0700
0700
0700
0700
0700
ENDCHAR
STARTCHAR Zcaron
ENCODING -1
SWIDTH 500 0
DWIDTH 12 0
BBX 11 22 1 0
BITMAP
3180
3B00
1F00
0E00
0000
7FC0
FFC0
7FC0
01C0
03C0
0380
0780
0F00
1E00
3C00
7800
F000
E000
E000
FFC0
FFE0
FFC0
ENDCHAR
STARTCHAR scaron
ENCODING -1
SWIDTH 500 0
DWIDTH 12 0
BBX 10 17 1 0
BITMAP
7380
3F00
1E00
0C00
7F80
FF80
FF00
E000
FC00
FF80
3FC0
03C0
01C0
01C0
7FC0
FF80
FF00
ENDCHAR
STARTCHAR zcaron
ENCODING -1
SWIDTH 444 0
DWIDTH 11 0
BBX 10 17 0 0
BITMAP
3180
1B00
1E00
0C00
7FC0
7FC0
3FC0
03C0
0780
0F00
1E00
3C00
7800
7000
FF80
FFC0
7FC0
ENDCHAR
STARTCHAR Delta
ENCODING -1
SWIDTH 709 0
DWIDTH 17 0
BBX 15 17 1 0
BITMAP
03C0
07C0
07C0
0EE0
0EE0
0CE0
1C70
1C70
3838
3838
3038
701C
701C
E00E
E00E
FFFE
FFFE
ENDCHAR
STARTCHAR Omega
ENCODING -1
SWIDTH 786 0
DWIDTH 19 0
BBX 17 16 1 0
BITMAP
07F000
1FFC00
3C1E00
780E00
700700
700700
E00700
E00700
600700
700700
700700
300600
380C00
1C1800
FE3F80
FE3F80
ENDCHAR
STARTCHAR pi
ENCODING -1
SWIDTH 641 0
DWIDTH 15 0
BBX 15 12 0 0
BITMAP
7FFE
FFFE
9C38
1C38
1C38
1C38
1C38
1838
3838
3838
3838
3838
ENDCHAR
STARTCHAR Euro
ENCODING -1
SWIDTH 611 0
DWIDTH 15 0
BBX 14 17 0 0
BITMAP
03FC
0FFC
1FFC
1E00
3C00
FFE0
7FE0
3800
7FE0
FFE0
1C00
1E00
0F00
0FC0
07FC
01FC
007C
ENDCHAR
STARTCHAR estimated
ENCODING -1
SWIDTH 844 0
DWIDTH 20 0
BBX 18 17 1 0
BITMAP
03F000
0C0C00
100300
200180
600180
E001C0
E001C0
E001C0
E001C0
FFFE00
E00000
E00000
600000
600000
300300
080600
07F800
ENDCHAR
STARTCHAR partialdiff
ENCODING -1
SWIDTH 610 0
DWIDTH 15 0
BBX 12 18 1 0
BITMAP
3F00
7FC0
61E0
00E0
0070
0070
0070
1F30
7FB0
70F0
E070
E070
E070
E070
E0E0
73C0
7F80
1F00
ENDCHAR
STARTCHAR product
ENCODING -1
SWIDTH 767 0
DWIDTH 18 0
BBX 17 18 1 -2
BITMAP
FFFF80
FFFF80
381C00
381C00
381C00
381C00
381C00
381C00
381C00
381C00
381C00
381C00
381C00
381C00
381C00
381C00
381C00
381C00
ENDCHAR
STARTCHAR summation
ENCODING -1
SWIDTH 602 0
DWIDTH 14 0
BBX 13 18 1 -2
BITMAP
FFF8
FFF8
F000
7800
3C00
1C00
0E00
0700
0780
0380
0700
0E00
1C00
3800
7000
FFF8
FFF8
FFF8
ENDCHAR
STARTCHAR uni2219
ENCODING -1
SWIDTH 305 0
DWIDTH 7 0
BBX 3 4 2 4
BITMAP
E0
E0
E0
40
ENDCHAR
STARTCHAR radical
ENCODING -1
SWIDTH 626 0
DWIDTH 15 0
BBX 14 23 1 -4
BITMAP
000C
000C
000C
0018
0018
0018
0018
0030
0030
0030
3030
F060
F860
1860
1C60
1CC0
0CC0
0EC0
06C0
0780
0780
0380
0380
ENDCHAR
STARTCHAR infinity
ENCODING -1
SWIDTH 799 0
DWIDTH 19 0
BBX 17 7 1 3
BITMAP
3E1F00
637300
C1E180
C1C180
C1C180
636180
7E3F00
ENDCHAR
STARTCHAR integral
ENCODING -1
SWIDTH 395 0
DWIDTH 9 0
BBX 9 24 0 -4
BITMAP
0380
0F80
0E00
0C00
1C00
1C00
1C00
1C00
1C00
1C00
1C00
0C00
0C00
0C00
0C00
0C00
0C00
0C00
0C00
0C00
1C00
1C00
7800
F000
ENDCHAR
STARTCHAR approxequal
ENCODING -1
SWIDTH 590 0
DWIDTH 14 0
BBX 12 9 1 2
BITMAP
1000
7E30
C7E0
01C0
1000
7E30
EF30
C3E0
00C0
ENDCHAR
STARTCHAR notequal
ENCODING -1
SWIDTH 590 0
DWIDTH 14 0
BBX 12 12 1 1
BITMAP
0080
0180
0100
FFF0
FFF0
0200
0600
0400
FFF0
FFF0
1800
1800
ENDCHAR
STARTCHAR lessequal
ENCODING -1
SWIDTH 590 0
DWIDTH 14 0
BBX 12 15 1 0
BITMAP
0030
00F0
03C0
0F00
3C00
E000
E000
7800
1E00
03C0
00F0
0030
0000
FFF0
FFF0
ENDCHAR
STARTCHAR greaterequal
ENCODING -1
SWIDTH 590 0
DWIDTH 14 0
BBX 12 15 1 0
BITMAP
C000
F000
3C00
0F00
03C0
0070
0070
01E0
0780
1E00
F000
C000
0000
FFF0
FFF0
ENDCHAR
STARTCHAR lozenge
ENCODING -1
SWIDTH 626 0
DWIDTH 15 0
BBX 11 18 2 -1
BITMAP
0E00
1F00
1B00
3B80
3180
71C0
60C0
E0E0
C060
C060
E0E0
60C0
71C0
3180
3B80
1B00
1F00
0E00
ENDCHAR
STARTCHAR uni02C9
ENCODING -1
SWIDTH 278 0
DWIDTH 7 0
BBX 7 2 0 14
BITMAP
FE
FE
ENDCHAR
STARTCHAR uni03A9
ENCODING -1
SWIDTH 786 0
DWIDTH 19 0
BBX 17 16 1 0
BITMAP
07F000
1FFC00
3C1E00
780E00
700700
700700
E00700
E00700
600700
700700
700700
300600
380C00
1C1800
FE3F80
FE3F80
ENDCHAR
STARTCHAR afii61289
ENCODING -1
SWIDTH 552 0
DWIDTH 13 0
BBX 11 18 1 0
BITMAP
0F00
1F80
39C0
38C0
38C0
38C0
3980
3B80
3B00
3E00
3E00
3C00
7800
F800
B820
3CE0
1FC0
0F80
ENDCHAR
STARTCHAR uni03BC
ENCODING -1
SWIDTH 556 0
DWIDTH 13 0
BBX 11 18 1 -5
BITMAP
60E0
E0E0
E0E0
E0E0
E0E0
E0E0
E0E0
E0E0
E0E0
F1E0
FFE0
FFE0
FEE0
E000
E000
E000
E000
6000
ENDCHAR
STARTCHAR uni2215
ENCODING -1
SWIDTH 167 0
DWIDTH 4 0
BBX 12 17 -4 0
BITMAP
0030
0070
00F0
00E0
01C0
03C0
0380
0700
0F00
0E00
1C00
3C00
3800
7000
F000
E000
C000
ENDCHAR
ENDFONT
